<?xml version="1.0" standalone="no"?>
<!DOCTYPE svg PUBLIC "-//W3C//DTD SVG 20010904//EN"
 "http://www.w3.org/TR/2001/REC-SVG-20010904/DTD/svg10.dtd">
<svg version="1.0" xmlns="http://www.w3.org/2000/svg"
 width="499.000000pt" height="500.000000pt" viewBox="0 0 499.000000 500.000000"
 preserveAspectRatio="xMidYMid meet">

<g transform="translate(0.000000,500.000000) scale(0.100000,-0.100000)"
fill="#000000" stroke="none">
<path d="M2070 4193 c-50 -7 -71 -14 -66 -21 2 -4 -3 -8 -12 -9 -41 -4 -112
-46 -146 -87 -20 -24 -36 -48 -36 -53 0 -5 -8 -18 -18 -29 -40 -43 -50 -133
-54 -478 -3 -223 -4 -241 -22 -258 -18 -16 -40 -18 -195 -18 -235 -1 -492 -16
-501 -30 -4 -7 -9 -10 -11 -9 -2 2 -29 -11 -59 -28 -49 -28 -131 -111 -122
-122 2 -2 -2 -7 -10 -12 -7 -5 -13 -12 -14 -16 0 -4 -3 -15 -7 -23 -27 -69
-30 -101 -23 -250 4 -85 9 -173 11 -195 3 -22 9 -128 15 -235 15 -281 19 -309
47 -370 26 -56 113 -150 139 -150 8 0 28 -7 44 -15 33 -17 85 -21 145 -12 22
3 67 9 100 12 32 4 67 10 76 15 9 5 19 7 22 4 3 -3 51 0 106 7 56 7 98 15 94
20 -8 6 -117 22 -363 51 -58 7 -110 12 -117 11 -7 0 -11 4 -10 9 1 6 -4 13
-12 16 -9 3 -11 0 -6 -8 6 -9 4 -11 -4 -6 -7 5 -10 10 -7 13 3 3 -4 14 -14 26
-31 32 -34 77 -21 281 7 105 16 274 21 376 15 293 13 277 40 300 22 19 35 20
337 20 202 0 331 4 361 11 57 14 159 84 199 136 34 45 65 111 58 123 -3 4 1
10 7 13 10 3 13 79 13 340 0 407 -13 373 150 381 137 7 500 34 580 44 120 14
168 9 212 -21 56 -39 64 -56 78 -168 3 -30 11 -83 16 -119 5 -36 12 -86 16
-113 3 -26 7 -46 9 -44 4 4 41 249 44 290 7 103 0 148 -32 203 -26 46 -81 97
-93 86 -5 -4 -5 -2 -2 4 16 29 -65 52 -221 64 -425 34 -693 50 -742 43z"/>
<path d="M3798 3089 c-15 -4 -29 -4 -32 -1 -3 3 -6 0 -6 -6 0 -6 26 -13 58
-17 31 -3 69 -9 84 -11 15 -3 29 -4 30 -3 2 2 23 -16 48 -38 58 -54 67 -88 59
-227 -4 -61 -9 -156 -12 -211 -17 -325 -30 -495 -40 -530 -6 -22 -11 -44 -11
-50 -1 -5 -5 -10 -11 -11 -5 0 -23 -6 -40 -13 -20 -9 -56 -11 -110 -7 -44 3
-175 8 -291 12 -186 6 -219 5 -277 -11 -40 -11 -64 -22 -60 -28 4 -6 0 -8 -11
-4 -11 5 -15 3 -10 -5 5 -7 2 -9 -8 -6 -31 12 -153 -130 -180 -210 -8 -25 -13
-140 -15 -342 -2 -168 -6 -312 -10 -320 -3 -8 -6 -18 -5 -21 2 -9 -9 -10 -368
-19 -190 -5 -377 -10 -416 -11 -39 -1 -76 1 -82 5 -27 16 -43 70 -48 158 -2
51 -10 136 -16 188 -11 98 -14 462 -4 539 4 24 13 73 22 110 9 36 17 73 18 81
3 20 69 154 78 158 5 2 8 8 8 13 0 37 190 210 326 295 34 22 70 44 80 51 30
19 -186 -56 -241 -84 -98 -50 -105 -55 -105 -64 0 -6 -4 -8 -9 -5 -5 3 -20 -5
-32 -19 -13 -13 -28 -25 -33 -25 -11 0 -125 -117 -146 -149 -8 -13 -22 -33
-31 -45 -29 -38 -50 -86 -43 -98 4 -6 3 -8 -3 -5 -21 13 -92 -230 -109 -373
-2 -19 -8 -66 -14 -105 -14 -101 -13 -628 2 -676 6 -21 19 -47 30 -58 10 -11
18 -24 18 -30 0 -5 14 -21 31 -35 17 -14 27 -26 23 -26 -12 0 39 -35 84 -58
23 -12 42 -18 42 -14 0 4 4 1 9 -7 6 -10 41 -16 113 -21 112 -8 830 -7 863 1
38 10 85 35 78 43 -4 4 0 4 10 0 23 -8 162 129 153 152 -3 8 -2 13 3 10 5 -3
16 22 26 57 16 54 18 102 16 369 -2 302 -2 306 19 321 14 10 17 16 9 19 -7 2
23 5 67 7 43 1 90 4 104 6 14 1 92 3 173 4 82 0 146 4 144 9 -3 4 25 6 61 5
65 -1 162 21 162 38 0 5 6 6 13 3 15 -5 125 97 145 136 53 99 53 140 7 715 -3
39 -9 122 -14 185 -5 79 -13 128 -26 155 -21 43 -76 118 -83 111 -2 -2 -12 4
-22 14 -36 36 -163 51 -242 29z m-1734 -2337 c3 -5 -1 -9 -9 -9 -8 0 -12 4 -9
9 3 4 7 8 9 8 2 0 6 -4 9 -8z"/>
<path d="M3735 3080 c-3 -5 -1 -10 4 -10 6 0 11 5 11 10 0 6 -2 10 -4 10 -3 0
-8 -4 -11 -10z"/>
</g>
</svg>
